<svg xmlns="http://www.w3.org/2000/svg" viewBox="0 0 604 160" role="img" aria-label="KashikeyoPOS">
  <title>KashikeyoPOS</title>
  <!-- Low-poly "kashikeyo" mark -->
  <g>
    <polygon points="52,9 76,9 82,21 46,21" fill="#e4e4e4"/>
    <polygon points="46,21 64,21 64,32 49,31" fill="#c9c9c9"/>
    <polygon points="64,21 82,21 79,31 64,32" fill="#a6a6a6"/>
    <polygon points="57,9 71,9 64,13" fill="#f2f2f2"/>
    <polygon points="44,30 64,30 64,60 28,62" fill="#e5432f"/>
    <polygon points="64,30 84,30 100,62 64,60" fill="#c5301f"/>
    <polygon points="28,62 64,60 64,80 14,98" fill="#f0563f"/>
    <polygon points="100,62 64,60 64,80 114,98" fill="#b62a1a"/>
    <polygon points="60,30 68,30 68,80 60,80" fill="#f7806e" opacity=".45"/>
    <polygon points="14,98 64,80 64,118 18,121" fill="#8fc47d"/>
    <polygon points="114,98 64,80 64,118 110,121" fill="#639e4e"/>
    <polygon points="18,121 64,118 64,144 58,150 26,150" fill="#a9d195"/>
    <polygon points="110,121 64,118 64,144 70,150 102,150" fill="#588f45"/>
  </g>
  <!-- wordmark -->
  <text x="150" y="86" font-family="'Segoe UI', system-ui, -apple-system, 'Helvetica Neue', Arial, sans-serif"
        font-weight="800" font-size="70" letter-spacing="-1" fill="#6e2f34">Kashikeyo</text>
  <text x="152" y="138" font-family="'Segoe UI', system-ui, -apple-system, 'Helvetica Neue', Arial, sans-serif"
        font-weight="600" font-size="44" letter-spacing="6" fill="#7c7c7c">POS<tspan font-size="18" dy="-22">™</tspan></text>
</svg>
